<svg
  xmlns="http://www.w3.org/2000/svg"
  viewBox="0 0 100 100"
  width="100"
  height="100"
>
  <!-- Cat face -->
  <circle
    cx="50"
    cy="55"
    r="35"
    fill="#FFB366"
    stroke="#333"
    stroke-width="2"
  />

  <!-- Cat ears -->
  <polygon
    points="25,30 35,15 45,30"
    fill="#FFB366"
    stroke="#333"
    stroke-width="2"
  />
  <polygon
    points="55,30 65,15 75,30"
    fill="#FFB366"
    stroke="#333"
    stroke-width="2"
  />

  <!-- Inner ears -->
  <polygon points="28,27 33,18 38,27" fill="#FF9933" />
  <polygon points="62,27 67,18 72,27" fill="#FF9933" />

  <!-- Eyes -->
  <ellipse cx="40" cy="50" rx="4" ry="6" fill="#333" />
  <ellipse cx="60" cy="50" rx="4" ry="6" fill="#333" />

  <!-- Eye shine -->
  <ellipse cx="41" cy="48" rx="1.5" ry="2" fill="#FFF" />
  <ellipse cx="61" cy="48" rx="1.5" ry="2" fill="#FFF" />

  <!-- Nose -->
  <polygon points="50,60 45,65 55,65" fill="#FF6B9D" />

  <!-- Mouth -->
  <path d="M 50 65 Q 45 70 40 65" stroke="#333" stroke-width="2" fill="none" />
  <path d="M 50 65 Q 55 70 60 65" stroke="#333" stroke-width="2" fill="none" />

  <!-- Whiskers -->
  <line x1="20" y1="55" x2="35" y2="52" stroke="#333" stroke-width="1.5" />
  <line x1="20" y1="62" x2="35" y2="62" stroke="#333" stroke-width="1.5" />
  <line x1="65" y1="52" x2="80" y2="55" stroke="#333" stroke-width="1.5" />
  <line x1="65" y1="62" x2="80" y2="62" stroke="#333" stroke-width="1.5" />
</svg>
